# xmcd CD database file
#
# Track frame offsets:
#	150
#	21666
#	34086
#	52214
#	69633
#	85793
#	112729
#	138652
#	172981
#	196884
#	211950
#	236267
#	265944
#	281519
#	298443
#
# Disc length: 4234 seconds
#
# Revision: 0
# Processed by: cddbd v1.5.1PL0 Copyright (c) Steve Scherf et al.
# Submitted via: CDex 1.51
#
DISCID=e410880f
DTITLE=Various Artist - Blues Rock
DYEAR=2003
DGENRE=Blues
TTITLE0=The Gregg Allman Band - Come And Go Blues
TTITLE1=Bonnie Bramlett - Let's Go Get Stoned
TTITLE2=The Broadcasters - Ronnie Earl - O'Yeah
TTITLE3=Eric Clapton - Duane Allman - Mean Old World
TTITLE4=The Allman Brothers Band - Wasted Words
TTITLE5=Richie Sambora - The Wind Cries Mary
TTITLE6=Ten Years After - Hear Me Calling
TTITLE7=The Taste - I Feel So Good
TTITLE8=Luther Allison - Easy Baby
TTITLE9=Duane Allman - Aretha Franklin - It Ain't Fair
TTITLE10=Muddy Waters - Born With Nothing
TTITLE11=Savoy Brown - I Can't Get Next To You
TTITLE12=Roy Buchanan - Tribute To Elmore James
TTITLE13=Pat Travers - Statesboro Blues
TTITLE14=Jonny Lang - Good Morning Little School Girl
EXTD=YEAR: 2003
EXTT0=
EXTT1=
EXTT2=
EXTT3=
EXTT4=
EXTT5=
EXTT6=
EXTT7=
EXTT8=
EXTT9=
EXTT10=
EXTT11=
EXTT12=
EXTT13=
EXTT14=
PLAYORDER=
